<?xml version="1.0" standalone="no"?><!DOCTYPE svg PUBLIC "-//W3C//DTD SVG 1.1//EN" "http://www.w3.org/Graphics/SVG/1.1/DTD/svg11.dtd"><svg t="1546481308240" class="icon" style="" viewBox="0 0 1024 1024" version="1.1" xmlns="http://www.w3.org/2000/svg" p-id="4374" xmlns:xlink="http://www.w3.org/1999/xlink" width="32" height="32"><defs><style type="text/css"></style></defs><path d="M510.019903 896.667963c212.141608 0 384.113331-171.9707 384.113331-384.108215 0-212.141608-171.9707-384.113331-384.113331-384.113331-212.137515 0-384.108215 171.9707-384.108215 384.113331C125.911688 724.69624 297.882388 896.667963 510.019903 896.667963L510.019903 896.667963zM480.770741 699.208752 480.770741 434.174494c0-17.165961 13.696953-31.081902 30.595832-31.081902 16.888645 0 30.3134 8.549723 30.3134 32.168654s0.274246 263.947508 0.274246 263.947508c0 17.149589-13.697977 31.081902-30.586622 31.081902C494.466672 730.291678 480.770741 716.359364 480.770741 699.208752L480.770741 699.208752zM547.737946 312.714188c0 20.446681-16.311501 37.028335-36.44505 37.028335-20.12741 0-36.446074-16.58063-36.446074-37.028335 0-20.449751 16.318664-37.031405 36.446074-37.031405C531.426445 275.68176 547.737946 292.264437 547.737946 312.714188z" p-id="4375" fill="#FFBE00"></path></svg>